<svg width="166" height="33" viewBox="0 0 166 33" fill="none" xmlns="http://www.w3.org/2000/svg">
<path d="M9.487 26.448C7.67367 26.448 5.91367 26.224 4.207 25.776C2.50033 25.328 1.11367 24.7307 0.0470001 23.984L2.127 19.312C3.12967 19.9733 4.29233 20.5067 5.615 20.912C6.93767 21.3173 8.239 21.52 9.519 21.52C11.951 21.52 13.167 20.912 13.167 19.696C13.167 19.056 12.815 18.5867 12.111 18.288C11.4283 17.968 10.319 17.6373 8.783 17.296C7.09767 16.9333 5.68967 16.5493 4.559 16.144C3.42833 15.7173 2.45767 15.0453 1.647 14.128C0.836333 13.2107 0.431 11.9733 0.431 10.416C0.431 9.05067 0.804333 7.824 1.551 6.736C2.29767 5.62667 3.407 4.752 4.879 4.112C6.37233 3.472 8.19633 3.152 10.351 3.152C11.823 3.152 13.2737 3.32267 14.703 3.664C16.1323 3.984 17.391 4.464 18.479 5.104L16.527 9.808C14.3937 8.656 12.3243 8.08 10.319 8.08C9.06033 8.08 8.143 8.272 7.567 8.656C6.991 9.01867 6.703 9.49867 6.703 10.096C6.703 10.6933 7.04433 11.1413 7.727 11.44C8.40967 11.7387 9.50833 12.048 11.023 12.368C12.7297 12.7307 14.1377 13.1253 15.247 13.552C16.3777 13.9573 17.3483 14.6187 18.159 15.536C18.991 16.432 19.407 17.6587 19.407 19.216C19.407 20.56 19.0337 21.776 18.287 22.864C17.5403 23.952 16.4203 24.8267 14.927 25.488C13.4337 26.128 11.6203 26.448 9.487 26.448ZM40.2858 8.656V26H34.4938V24.144C33.8538 24.848 33.0858 25.3813 32.1898 25.744C31.2938 26.1067 30.3444 26.288 29.3418 26.288C27.1018 26.288 25.3098 25.6267 23.9658 24.304C22.6431 22.9813 21.9818 20.9973 21.9818 18.352V8.656H28.0618V17.36C28.0618 18.6613 28.3071 19.6107 28.7978 20.208C29.2884 20.8053 30.0031 21.104 30.9418 21.104C31.9018 21.104 32.6804 20.7733 33.2778 20.112C33.8964 19.4293 34.2058 18.3947 34.2058 17.008V8.656H40.2858ZM55.114 8.368C56.6927 8.368 58.122 8.74133 59.402 9.488C60.7033 10.2133 61.7273 11.2587 62.474 12.624C63.242 13.968 63.626 15.536 63.626 17.328C63.626 19.12 63.242 20.6987 62.474 22.064C61.7273 23.408 60.7033 24.4533 59.402 25.2C58.122 25.9253 56.6927 26.288 55.114 26.288C53.0873 26.288 51.4767 25.68 50.282 24.464V32.208H44.202V8.656H49.994V10.384C51.1247 9.04 52.8313 8.368 55.114 8.368ZM53.834 21.456C54.9007 21.456 55.7753 21.0933 56.458 20.368C57.1407 19.6213 57.482 18.608 57.482 17.328C57.482 16.048 57.1407 15.0453 56.458 14.32C55.7753 13.5733 54.9007 13.2 53.834 13.2C52.7673 13.2 51.8927 13.5733 51.21 14.32C50.5273 15.0453 50.186 16.048 50.186 17.328C50.186 18.608 50.5273 19.6213 51.21 20.368C51.8927 21.0933 52.7673 21.456 53.834 21.456ZM75.732 21.648C76.564 21.648 77.2787 21.5307 77.876 21.296C78.4947 21.0613 79.1133 20.6773 79.732 20.144L82.9 23.472C81.2573 25.3493 78.804 26.288 75.54 26.288C73.5133 26.288 71.732 25.904 70.196 25.136C68.66 24.368 67.4653 23.3013 66.612 21.936C65.78 20.5707 65.364 19.024 65.364 17.296C65.364 15.5893 65.78 14.064 66.612 12.72C67.444 11.3547 68.5853 10.288 70.036 9.52C71.508 8.752 73.1507 8.368 74.964 8.368C76.6493 8.368 78.1853 8.72 79.572 9.424C80.98 10.1067 82.1 11.12 82.932 12.464C83.764 13.7867 84.18 15.3653 84.18 17.2L71.796 19.568C72.4573 20.9547 73.7693 21.648 75.732 21.648ZM74.996 12.688C73.9507 12.688 73.0973 13.0187 72.436 13.68C71.7747 14.32 71.4013 15.248 71.316 16.464L78.356 15.088C78.1427 14.3627 77.7373 13.7867 77.14 13.36C76.5427 12.912 75.828 12.688 74.996 12.688ZM92.7753 10.736C93.3939 9.94667 94.1939 9.36 95.1753 8.976C96.1779 8.57067 97.3193 8.368 98.5993 8.368V13.84C98.0446 13.776 97.5859 13.744 97.2233 13.744C95.9219 13.744 94.8979 14.096 94.1513 14.8C93.4259 15.504 93.0633 16.5813 93.0633 18.032V26H86.9833V8.656H92.7753V10.736Z" fill="#FFCA33"/>
<path d="M109.331 26.448C107.517 26.448 105.757 26.224 104.051 25.776C102.344 25.328 100.957 24.7307 99.8908 23.984L101.971 19.312C102.973 19.9733 104.136 20.5067 105.459 20.912C106.781 21.3173 108.083 21.52 109.363 21.52C111.795 21.52 113.011 20.912 113.011 19.696C113.011 19.056 112.659 18.5867 111.955 18.288C111.272 17.968 110.163 17.6373 108.627 17.296C106.941 16.9333 105.533 16.5493 104.403 16.144C103.272 15.7173 102.301 15.0453 101.491 14.128C100.68 13.2107 100.275 11.9733 100.275 10.416C100.275 9.05067 100.648 7.824 101.395 6.736C102.141 5.62667 103.251 4.752 104.723 4.112C106.216 3.472 108.04 3.152 110.195 3.152C111.667 3.152 113.117 3.32267 114.547 3.664C115.976 3.984 117.235 4.464 118.323 5.104L116.371 9.808C114.237 8.656 112.168 8.08 110.163 8.08C108.904 8.08 107.987 8.272 107.411 8.656C106.835 9.01867 106.547 9.49867 106.547 10.096C106.547 10.6933 106.888 11.1413 107.571 11.44C108.253 11.7387 109.352 12.048 110.867 12.368C112.573 12.7307 113.981 13.1253 115.091 13.552C116.221 13.9573 117.192 14.6187 118.003 15.536C118.835 16.432 119.251 17.6587 119.251 19.216C119.251 20.56 118.877 21.776 118.131 22.864C117.384 23.952 116.264 24.8267 114.771 25.488C113.277 26.128 111.464 26.448 109.331 26.448ZM140.13 8.656V26H134.338V24.144C133.698 24.848 132.93 25.3813 132.034 25.744C131.138 26.1067 130.188 26.288 129.186 26.288C126.946 26.288 125.154 25.6267 123.81 24.304C122.487 22.9813 121.826 20.9973 121.826 18.352V8.656H127.906V17.36C127.906 18.6613 128.151 19.6107 128.642 20.208C129.132 20.8053 129.847 21.104 130.786 21.104C131.746 21.104 132.524 20.7733 133.122 20.112C133.74 19.4293 134.05 18.3947 134.05 17.008V8.656H140.13ZM144.046 8.656H150.126V26H144.046V8.656ZM147.086 6.736C145.976 6.736 145.08 6.42666 144.398 5.808C143.715 5.18933 143.374 4.42133 143.374 3.504C143.374 2.58667 143.715 1.81867 144.398 1.2C145.08 0.581333 145.976 0.271999 147.086 0.271999C148.195 0.271999 149.091 0.570666 149.774 1.168C150.456 1.744 150.798 2.49067 150.798 3.408C150.798 4.368 150.456 5.168 149.774 5.808C149.091 6.42666 148.195 6.736 147.086 6.736ZM165.245 25.296C164.733 25.616 164.104 25.8613 163.357 26.032C162.632 26.2027 161.853 26.288 161.021 26.288C158.76 26.288 157.021 25.7333 155.805 24.624C154.61 23.5147 154.013 21.8613 154.013 19.664V4.784H160.093V9.296H164.029V13.84H160.093V19.6C160.093 20.24 160.253 20.7307 160.573 21.072C160.893 21.4133 161.33 21.584 161.885 21.584C162.589 21.584 163.208 21.4027 163.741 21.04L165.245 25.296Z" fill="#041A3F"/>
</svg>
